<?xml version="1.0" encoding="UTF-8" standalone="no"?>
<svg
   xmlns:dc="http://purl.org/dc/elements/1.1/"
   xmlns:cc="http://creativecommons.org/ns#"
   xmlns:rdf="http://www.w3.org/1999/02/22-rdf-syntax-ns#"
   xmlns:svg="http://www.w3.org/2000/svg"
   xmlns="http://www.w3.org/2000/svg"
   viewBox="0 0 616 136"
   height="136"
   width="616"
   xml:space="preserve"
   id="svg2"
   version="1.1"><metadata
     id="metadata8"><rdf:RDF><cc:Work
         rdf:about=""><dc:format>image/svg+xml</dc:format><dc:type
           rdf:resource="http://purl.org/dc/dcmitype/StillImage" /></cc:Work></rdf:RDF></metadata><defs
     id="defs6" /><g
     transform="matrix(1.3333333,0,0,-1.3333333,0,136)"
     id="g10"><g
       transform="scale(0.1)"
       id="g12"><path
         id="path14"
         style="fill:#111f46;fill-opacity:1;fill-rule:evenodd;stroke:none"
         d="m 4558.4,548.199 c 5.39,3.012 18.98,28.75 40.86,77.192 21.87,48.238 19.29,100.82 -7.7,157.621 -26.83,56.828 -110.7,99.609 -251.56,128.359 -140.7,28.75 -371.02,25.109 -690.98,-10.941 -319.96,-36.25 -762.07,-123.2 -1326.29,-260.86 6.02,2.149 84.18,17.891 234.5,47.27 150.35,29.371 336.48,59.609 558.43,90.738 222.19,31.293 443.83,50.703 664.93,58.203 221.32,7.5 405.74,-9.531 553.32,-51.172 147.73,-41.558 222.57,-120.39 224.49,-236.41" /><path
         id="path16"
         style="fill:#111f46;fill-opacity:1;fill-rule:evenodd;stroke:none"
         d="m 4389.84,320.121 c 5.16,2.809 19.65,27.77 43.44,74.957 23.79,47.383 25.2,101.012 4.18,160.863 -20.78,59.61 -95.43,109.219 -223.87,148.899 -128.67,39.691 -342.73,53.211 -642.07,40.551 -299.41,-12.422 -715.66,-67.34 -1248.79,-164.692 5.59,1.68 78.29,12.231 218.13,31.531 140.04,19.29 313.09,36.872 519.18,52.731 206.29,15.66 411.95,19.219 616.95,10.629 204.85,-8.602 375.12,-39.891 510.86,-93.91 135.74,-54.059 203.09,-141.25 201.99,-261.559" /><path
         id="path18"
         style="fill:#111f46;fill-opacity:1;fill-rule:evenodd;stroke:none"
         d="m 4216.13,61.1719 c 5.16,2.5781 21.57,28.6289 49.22,78.2071 27.89,49.531 35.94,107.609 24.14,174.293 -11.79,66.527 -74.18,126.558 -187.22,180.156 -113.25,53.633 -308.17,85.582 -584.81,95.863 -276.64,10.508 -665.98,-15.632 -1168.01,-78.48 5.35,1.289 72.58,5.348 201.68,12.23 129.34,6.868 288.75,8.981 478.36,6.438 189.57,-2.809 377.62,-17.688 564.22,-44.719 186.33,-27.23 339.38,-74.301 459.02,-141.25 119.46,-66.879 173.91,-161.14 163.4,-282.7381" /><path
         id="path20"
         style="fill:#63a9c1;fill-opacity:1;fill-rule:evenodd;stroke:none"
         d="m 2983.79,463.59 97.77,387 c -1.25,1.91 3.36,10.5 13.87,25.699 10.7,15.039 35.39,25.66 73.98,31.871 l 701.25,108.4 c 4.93,3.44 20.82,4.3 47.62,2.58 26.99,-1.91 36.02,-26.171 26.99,-72.691 l -93.59,-591.57 c 0.86,-1.09 -0.63,-8.277 -4.49,-21.559 -4.1,-13.09 -16.84,-25 -38.28,-35.699 1.05,-0.633 -1.53,-6.883 -7.74,-18.672 -6.4,-11.801 -22.93,-25.398 -49.53,-40.859 L 3447.34,29.6484 c -0.23,-3.0078 -14.14,-10.1992 -41.83,-21.55856 -27.85,-11.37109 -68.52,-8.480465 -121.92,8.71096 L 2453.98,301.801 c -1.91,-0.242 -9.1,3.75 -21.56,11.871 -12.42,8.168 -18.01,21.25 -16.72,39.258 -4.68,3.871 13.01,10.941 53.09,21.25 l 515,89.41" /><path
         id="path22"
         style="fill:#111f46;fill-opacity:1;fill-rule:evenodd;stroke:none"
         d="m 3871.02,1016.56 -701.29,-108.4 c -38.83,-6.211 -63.48,-16.832 -73.99,-31.871 -10.7,-15.199 -15.43,-23.789 -14.18,-25.699 l -97.77,-387 797.77,-101.988 c 13.28,-4.922 20.59,-12.622 21.88,-23.122 1.29,-10.511 1.48,-16.41 0.62,-17.699 L 3474.02,99.1406 c -1.05,-1.7187 -12.42,-8.6718 -34.06,-20.9023 -21.68,-12.0274 -47.3,-19.0977 -76.91,-21.25 -7.31,-5.5781 -58.32,5.3515 -153.09,32.8125 L 2415.39,342.301 c 2.81,-14.141 9.65,-24.41 20.59,-30.852 10.7,-6.41 16.72,-9.648 18,-9.648 L 3283.59,16.8008 c 53.4,-17.191425 94.07,-20.08205 121.92,-8.71096 27.89,11.17186 41.91,18.35936 42.15,21.55856 L 3751.64,238.09 c 26.6,15.461 43.13,29.058 49.53,40.859 6.45,11.789 9.14,18.039 8.05,18.672 33.05,22.301 47.19,40.617 42.46,55 0,1.52 0,2.258 0,2.258 l 93.59,591.57 c 9.03,46.75 0,70.971 -26.99,72.691 -26.8,1.72 -42.58,0.86 -47.26,-2.58" /><path
         id="path24"
         style="fill:#aad9ef;fill-opacity:1;fill-rule:evenodd;stroke:none"
         d="m 3856.52,945.469 -95.86,-539.449 -728.28,72.691 89.42,368.988 734.72,97.77" /><path
         id="path26"
         style="fill:#111f46;fill-opacity:1;fill-rule:evenodd;stroke:none"
         d="m 2909.8,432.699 809.69,-114.808 -21.91,-13.871 -818.01,123.25 30.23,5.429" /><path
         id="path28"
         style="fill:#111f46;fill-opacity:1;fill-rule:evenodd;stroke:none"
         d="m 2794.34,411.48 c 0.23,0 0.43,0 0.66,0 l 848.24,-142.5 -36.01,-22.851 -856.64,157.312 43.75,8.039" /><path
         id="path30"
         style="fill:#111f46;fill-opacity:1;fill-rule:evenodd;stroke:none"
         d="m 2852.23,422.109 c 0.23,-0.23 0.54,-0.308 0.97,-0.308 l 832.82,-125.473 -31.22,-19.957 -834.1,139.918 31.53,5.82" /><path
         id="path32"
         style="fill:#111f46;fill-opacity:1;fill-rule:evenodd;stroke:none"
         d="m 2724.84,398.59 870.78,-159.84 -52.1,-33.441 -887.19,180.742 68.51,12.539" /><path
         id="path34"
         style="fill:#111f46;fill-opacity:1;fill-rule:evenodd;stroke:none"
         d="m 2968.05,443.359 783.59,-105.238 -20.27,-12.851 -792.93,112.582 29.61,5.507" /><path
         id="path36"
         style="fill:#111f46;fill-opacity:1;fill-rule:evenodd;stroke:none"
         d="m 2714.22,332.34 c 8.83,2.351 18.05,3.558 27.69,3.558 16.92,-1.058 25.94,-2.148 27,-3.238 l 297.57,-63.988 c 8.13,-3.672 11.57,-5.582 10.28,-5.781 -1.29,-1.52 -4.69,-3.321 -10.28,-5.512 L 2967.7,222.66 c -3.4,-3.211 -21.76,-6.211 -55,-9.031 -13.29,0 -25.32,1.601 -36.02,4.851 l -267.97,80.11 c -1.72,1.289 -3.01,2.461 -3.83,3.519 0.2,0.43 1.37,0.981 3.52,1.602 l 105.82,28.629" /><path
         id="path38"
         style="fill:#ffffff;fill-opacity:1;fill-rule:evenodd;stroke:none"
         d="m 3043.95,525.66 77.85,322.039 615.04,81.68 C 3681.29,866.371 3595.74,794.922 3480.16,715.16 3364.77,635.59 3219.38,572.422 3043.95,525.66" /><path
         id="path40"
         style="fill:#002a46;fill-opacity:1;fill-rule:nonzero;stroke:none"
         d="M 308.16,586.211 335.352,740.59 H 258.16 l 5.469,30.93 h 216.25 L 474.41,740.59 H 397.07 L 369.879,586.211 Z m 159.692,0 24.378,138.91 54.532,46.399 h 170 l -13.75,-77.18 -54.383,-46.41 h -77.18 l 5.461,30.941 h 46.25 l 18.129,15.469 8.121,46.25 H 572.23 L 554.102,725.121 535.039,617.148 H 689.57 l -5.468,-30.937 z" /><path
         id="path42"
         style="fill:#002a46;fill-opacity:1;fill-rule:nonzero;stroke:none"
         d="m 849.059,617.148 18.281,15.313 18.91,108.129 H 809.059 L 790.941,725.121 771.879,617.148 Z m -144.368,-30.937 24.368,138.91 54.531,46.399 h 170 l -24.531,-139.059 -54.528,-46.25 z" /><path
         id="path44"
         style="fill:#002a46;fill-opacity:1;fill-rule:nonzero;stroke:none"
         d="m 941.559,586.211 24.382,138.91 54.529,46.399 h 77.34 l -5.47,-30.93 h -46.4 l -18.13,-15.469 -19.06,-107.973 h 77.19 l 18.28,15.313 35.31,200.777 h 61.88 l -35.47,-200.777 -54.53,-46.25 z" /><path
         id="path46"
         style="fill:#002a46;fill-opacity:1;fill-rule:nonzero;stroke:none"
         d="m 1322.77,617.148 18.28,15.313 18.91,108.129 h -77.19 l -18.12,-15.469 -19.06,-107.973 z m -144.37,-30.937 24.37,138.91 54.53,46.399 h 170 l -24.53,-139.059 -54.53,-46.25 z" /><path
         id="path48"
         style="fill:#002a46;fill-opacity:1;fill-rule:nonzero;stroke:none"
         d="m 1415.27,586.211 24.38,138.91 54.53,46.399 h 170 l -13.75,-77.18 -54.38,-46.41 h 15.47 l 10,-30.782 h 15.47 l -5.47,-30.937 h -61.87 l -19.85,61.719 h -30.93 l 5.47,30.941 h 46.25 l 18.12,15.469 8.13,46.25 h -77.19 l -18.13,-15.469 -24.53,-138.91 z" /><path
         id="path50"
         style="fill:#002a46;fill-opacity:1;fill-rule:nonzero;stroke:none"
         d="m 1652.15,586.211 21.72,123.59 h 61.72 l -21.72,-123.59 z m 27.19,154.379 5.46,30.93 h 61.72 l -5.47,-30.93 z" /><path
         id="path52"
         style="fill:#002a46;fill-opacity:1;fill-rule:nonzero;stroke:none"
         d="m 1734.45,586.211 24.38,138.91 54.53,46.399 h 170 l -10.94,-61.719 h -61.87 l 5.47,30.789 h -77.19 l -18.13,-15.469 -19.06,-107.973 h 154.53 l -5.47,-30.937 z" /><path
         id="path54"
         style="fill:#002a46;fill-opacity:1;fill-rule:nonzero;stroke:none"
         d="m 2115.66,617.148 18.29,15.313 18.9,108.129 h -77.19 l -18.12,-15.469 -19.06,-107.973 z m -144.37,-30.937 24.37,138.91 54.54,46.399 h 170 l -24.54,-139.059 -54.53,-46.25 z" /><path
         id="path56"
         style="fill:#002a46;fill-opacity:1;fill-rule:nonzero;stroke:none"
         d="M 35.0391,256.211 54.1016,364.34 H 0.0390625 L 3.78906,385.898 H 155.199 l -3.91,-21.558 H 97.2305 L 78.3203,256.211 Z m 111.7229,0 17.187,97.34 38.121,32.347 H 320.98 L 311.289,331.84 273.32,299.488 h -54.058 l 3.898,21.563 h 32.352 l 12.648,10.789 5.629,32.5 h -53.91 L 207.07,353.551 193.789,277.77 H 301.91 l -3.898,-21.559 z" /><path
         id="path58"
         style="fill:#002a46;fill-opacity:1;fill-rule:nonzero;stroke:none"
         d="m 413.672,277.77 12.656,10.941 13.281,75.629 h -53.91 L 372.891,353.551 359.609,277.77 Z m -101.094,-21.559 17.192,97.34 38.121,32.347 h 118.91 l -17.192,-97.187 -38.129,-32.5 z" /><path
         id="path60"
         style="fill:#002a46;fill-opacity:1;fill-rule:nonzero;stroke:none"
         d="m 478.398,256.211 22.813,129.687 h 183.75 l 26.719,-32.347 -17.192,-97.34 h -43.117 l 17.027,97.34 -8.91,10.789 h -32.34 L 608.09,256.211 h -43.289 l 19.07,108.129 H 540.59 L 521.68,256.211 Z" /><path
         id="path62"
         style="fill:#002a46;fill-opacity:1;fill-rule:nonzero;stroke:none"
         d="m 708.828,256.211 17.192,97.34 38.121,32.347 h 118.91 L 860.078,256.211 h -43.129 l 18.91,108.129 h -53.91 L 769.141,353.551 755.859,277.77 h 43.282 l -3.911,-21.559 z" /><path
         id="path64"
         style="fill:#002a46;fill-opacity:1;fill-rule:nonzero;stroke:none"
         d="m 907.148,256.211 -26.718,32.5 5.621,32.34 H 994.18 l 5.781,32.5 -9.063,10.789 H 936.84 l -3.602,-21.719 h -43.277 l 7.5,43.277 h 118.909 l 26.87,-32.347 -9.69,-54.063 H 925.59 l -2.039,-10.777 8.91,-10.941 h 97.339 l -3.9,-21.559 z" /><path
         id="path66"
         style="fill:#002a46;fill-opacity:1;fill-rule:nonzero;stroke:none"
         d="m 1040.43,256.211 15.16,86.41 h 43.28 l -15.16,-86.41 z m 19.06,108.129 3.75,21.558 h 43.28 l -3.9,-21.558 z" /><path
         id="path68"
         style="fill:#002a46;fill-opacity:1;fill-rule:nonzero;stroke:none"
         d="m 1098.05,256.211 22.81,129.687 h 43.28 L 1145.08,277.77 h 32.5 l 38.12,32.5 13.28,75.628 h 43.29 l -13.29,-75.628 -63.59,-54.059 z" /><path
         id="path70"
         style="fill:#002a46;fill-opacity:1;fill-rule:nonzero;stroke:none"
         d="m 1263.87,256.211 15.15,86.41 h 43.28 l -15.15,-86.41 z m 19.06,108.129 3.75,21.558 h 43.28 l -3.91,-21.558 z" /><path
         id="path72"
         style="fill:#002a46;fill-opacity:1;fill-rule:nonzero;stroke:none"
         d="m 1321.48,256.211 30.47,172.969 h 43.28 l -26.71,-151.41 h 64.84 l 3.91,21.718 h 43.12 l -7.66,-43.277 z" /><path
         id="path74"
         style="fill:#002a46;fill-opacity:1;fill-rule:nonzero;stroke:none"
         d="m 1487.27,256.211 17.18,97.34 38.13,32.347 h 118.9 l -22.96,-129.687 h -43.13 l 18.91,108.129 h -53.91 l -12.81,-10.789 -13.28,-75.781 h 43.28 l -3.91,-21.559 z" /><path
         id="path76"
         style="fill:#002a46;fill-opacity:1;fill-rule:nonzero;stroke:none"
         d="m 1668.24,342.621 14.69,21.719 h -10.78 l 5.78,32.34 h 43.12 l -5.78,-32.34 -25.31,-21.719 z" /><path
         id="path78"
         style="fill:#002a46;fill-opacity:1;fill-rule:nonzero;stroke:none"
         d="m 1710.7,256.211 3.75,21.559 h 97.35 l 12.65,10.941 2.03,10.777 h -108.12 l 9.53,54.063 38.13,32.347 h 118.9 l -7.65,-43.277 h -43.29 l 3.75,21.719 h -53.9 l -12.81,-10.789 -5.63,-32.5 h 108.13 l -5.79,-32.34 -38.12,-32.5 z" /><path
         id="path80"
         style="fill:#002a46;fill-opacity:1;fill-rule:nonzero;stroke:none"
         d="m 1887.89,321.051 3.91,21.57 h 86.4 l -3.75,-21.57 z" /><path
         id="path82"
         style="fill:#002a46;fill-opacity:1;fill-rule:nonzero;stroke:none"
         d="M 1977.19,256.211 2000,385.898 h 43.28 l -22.81,-129.687 z" /><path
         id="path84"
         style="fill:#002a46;fill-opacity:1;fill-rule:nonzero;stroke:none"
         d="m 2088.87,256.211 19.06,108.129 h -54.06 l 3.75,21.558 h 151.4 l -3.9,-21.558 h -54.07 l -18.9,-108.129 z" /></g></g></svg>